<svg xmlns="http://www.w3.org/2000/svg" xmlns:xlink="http://www.w3.org/1999/xlink" viewBox="0,0,256,256" width="64px" height="64px"><g fill="#14e536" fill-rule="nonzero" stroke="none" stroke-width="1" stroke-linecap="butt" stroke-linejoin="miter" stroke-miterlimit="10" stroke-dasharray="" stroke-dashoffset="0" font-family="none" font-weight="none" font-size="none" text-anchor="none" style="mix-blend-mode: normal"><g transform="scale(4,4)"><path d="M32,6c-14.359,0 -26,11.641 -26,26c0,14.359 11.641,26 26,26c14.359,0 26,-11.641 26,-26c0,-14.359 -11.641,-26 -26,-26zM45.121,28.121l-13,13c-0.586,0.586 -1.353,0.879 -2.121,0.879c-0.768,0 -1.535,-0.293 -2.121,-0.879l-8,-8c-1.172,-1.171 -1.172,-3.071 0,-4.242c1.172,-1.172 3.07,-1.172 4.242,0l5.879,5.879l10.879,-10.879c1.172,-1.172 3.07,-1.172 4.242,0c1.172,1.171 1.172,3.071 0,4.242z"></path></g></g></svg>