<svg width="80" height="80" viewBox="0 0 80 80" fill="none" xmlns="http://www.w3.org/2000/svg">
<rect width="80" height="80" rx="16" fill="#EBF9FF"/>
<path d="M35.0007 56.6666H45.0007C53.334 56.6666 56.6673 53.3333 56.6673 44.9999V34.9999C56.6673 26.6666 53.334 23.3333 45.0007 23.3333H35.0007C26.6673 23.3333 23.334 26.6666 23.334 34.9999V44.9999C23.334 53.3333 26.6673 56.6666 35.0007 56.6666Z" stroke="#008EC4" stroke-width="2.5" stroke-linecap="round" stroke-linejoin="round"/>
<path d="M42.7846 32.5168C41.9513 32.2668 41.0346 32.1001 40.0013 32.1001C35.4013 32.1001 31.668 35.8334 31.668 40.4334C31.668 45.0334 35.4013 48.7668 40.0013 48.7668C44.6013 48.7668 48.3346 45.0334 48.3346 40.4334C48.3346 38.7168 47.818 37.1334 46.9346 35.8001" stroke="#008EC4" stroke-width="2.5" stroke-linecap="round" stroke-linejoin="round"/>
<path d="M43.9698 32.75L41.2031 29.5667" stroke="#008EC4" stroke-width="2.5" stroke-linecap="round" stroke-linejoin="round"/>
<path d="M43.9677 32.7498L40.7344 35.1164" stroke="#008EC4" stroke-width="2.5" stroke-linecap="round" stroke-linejoin="round"/>
</svg>
