<svg width="26" height="26" viewBox="0 0 26 26" fill="none" xmlns="http://www.w3.org/2000/svg">
<g clip-path="url(#clip0_0_1186)">
<path d="M13 24.375C9.98316 24.375 7.08989 23.1766 4.95666 21.0433C2.82343 18.9101 1.625 16.0168 1.625 13C1.625 9.98316 2.82343 7.08989 4.95666 4.95666C7.08989 2.82343 9.98316 1.625 13 1.625C16.0168 1.625 18.9101 2.82343 21.0433 4.95666C23.1766 7.08989 24.375 9.98316 24.375 13C24.375 16.0168 23.1766 18.9101 21.0433 21.0433C18.9101 23.1766 16.0168 24.375 13 24.375ZM13 26C16.4478 26 19.7544 24.6304 22.1924 22.1924C24.6304 19.7544 26 16.4478 26 13C26 9.55219 24.6304 6.24558 22.1924 3.80761C19.7544 1.36964 16.4478 0 13 0C9.55219 0 6.24558 1.36964 3.80761 3.80761C1.36964 6.24558 0 9.55219 0 13C0 16.4478 1.36964 19.7544 3.80761 22.1924C6.24558 24.6304 9.55219 26 13 26Z" fill="black"/>
<path d="M14.5112 10.7055L10.7899 11.1719L10.6567 11.7894L11.3879 11.9242C11.8657 12.038 11.9599 12.2102 11.8559 12.6864L10.6567 18.3219C10.3414 19.7795 10.8273 20.4652 11.9697 20.4652C12.8553 20.4652 13.8839 20.0557 14.3503 19.4935L14.4933 18.8175C14.1683 19.1035 13.6938 19.2172 13.3785 19.2172C12.9317 19.2172 12.7692 18.9036 12.8845 18.3511L14.5112 10.7055ZM14.6249 7.3125C14.6249 7.74348 14.4537 8.1568 14.149 8.46155C13.8442 8.76629 13.4309 8.9375 12.9999 8.9375C12.5689 8.9375 12.1556 8.76629 11.8509 8.46155C11.5461 8.1568 11.3749 7.74348 11.3749 7.3125C11.3749 6.88152 11.5461 6.4682 11.8509 6.16345C12.1556 5.8587 12.5689 5.6875 12.9999 5.6875C13.4309 5.6875 13.8442 5.8587 14.149 6.16345C14.4537 6.4682 14.6249 6.88152 14.6249 7.3125Z" fill="black"/>
</g>
<defs>
<clipPath id="clip0_0_1186">
<rect width="26" height="26" fill="white"/>
</clipPath>
</defs>
</svg>
