<svg width="80" height="81" viewBox="0 0 80 81" fill="none" xmlns="http://www.w3.org/2000/svg">
<rect width="80" height="81" rx="16" fill="#EBF9FF"/>
<path d="M34.4531 44.3832C34.4531 46.5332 36.1031 48.2665 38.1531 48.2665H42.3365C44.1198 48.2665 45.5698 46.7498 45.5698 44.8832C45.5698 42.8498 44.6865 42.1332 43.3698 41.6665L36.6531 39.3332C35.3365 38.8665 34.4531 38.1498 34.4531 36.1165C34.4531 34.2498 35.9031 32.7332 37.6865 32.7332H41.8698C43.9198 32.7332 45.5698 34.4665 45.5698 36.6165" stroke="#008EC4" stroke-width="2.5" stroke-linecap="round" stroke-linejoin="round"/>
<path d="M40 30.5V50.5" stroke="#008EC4" stroke-width="2.5" stroke-linecap="round" stroke-linejoin="round"/>
<path d="M40.0007 57.1666C49.2054 57.1666 56.6673 49.7047 56.6673 40.4999C56.6673 31.2952 49.2054 23.8333 40.0007 23.8333C30.7959 23.8333 23.334 31.2952 23.334 40.4999C23.334 49.7047 30.7959 57.1666 40.0007 57.1666Z" stroke="#008EC4" stroke-width="2.5" stroke-linecap="round" stroke-linejoin="round"/>
</svg>
