<svg width="80" height="80" viewBox="0 0 80 80" fill="none" xmlns="http://www.w3.org/2000/svg">
<rect width="80" height="80" rx="16" fill="#EBF9FF"/>
<path d="M37.4836 23.7168L29.1669 26.8335C27.2503 27.5502 25.6836 29.8168 25.6836 31.8668V44.2501C25.6836 46.2168 26.9836 48.8001 28.5669 49.9835L35.7336 55.3335C38.0836 57.1002 41.9502 57.1002 44.3002 55.3335L51.4669 49.9835C53.0503 48.8001 54.3502 46.2168 54.3502 44.2501V31.8668C54.3502 29.8168 52.7836 27.5502 50.8669 26.8335L42.5503 23.7168C41.1336 23.2002 38.8669 23.2002 37.4836 23.7168Z" stroke="#008EC4" stroke-width="2.5" stroke-linecap="round" stroke-linejoin="round"/>
<path d="M39.9982 38.1997C39.9315 38.1997 39.8482 38.1997 39.7815 38.1997C38.2148 38.1497 36.9648 36.8497 36.9648 35.2664C36.9648 33.6497 38.2815 32.333 39.8982 32.333C41.5149 32.333 42.8315 33.6497 42.8315 35.2664C42.8149 36.8664 41.5649 38.1497 39.9982 38.1997Z" stroke="#008EC4" stroke-width="2.5" stroke-linecap="round" stroke-linejoin="round"/>
<path d="M36.6805 42.8664C35.0805 43.933 35.0805 45.683 36.6805 46.7497C38.4971 47.9663 41.4805 47.9663 43.2971 46.7497C44.8971 45.683 44.8971 43.933 43.2971 42.8664C41.4971 41.6497 38.5138 41.6497 36.6805 42.8664Z" stroke="#008EC4" stroke-width="2.5" stroke-linecap="round" stroke-linejoin="round"/>
</svg>
