<svg width="218" height="218" viewBox="0 0 218 218" fill="none" xmlns="http://www.w3.org/2000/svg">
<g filter="url(#filter0_di_1_735)">
<mask id="path-1-inside-1_1_735" fill="white">
<path d="M16.7584 60.3303C16.7584 36.2662 36.2662 16.7584 60.3303 16.7584H157.529C181.593 16.7584 201.101 36.2662 201.101 60.3302V157.529C201.101 181.593 181.593 201.101 157.529 201.101H60.3303C36.2662 201.101 16.7584 181.593 16.7584 157.529V60.3303Z"/>
</mask>
<path d="M16.7584 60.3303C16.7584 36.2662 36.2662 16.7584 60.3303 16.7584H157.529C181.593 16.7584 201.101 36.2662 201.101 60.3302V157.529C201.101 181.593 181.593 201.101 157.529 201.101H60.3303C36.2662 201.101 16.7584 181.593 16.7584 157.529V60.3303Z" fill="#2DC38C"/>
<path d="M16.7584 16.7584H201.101H16.7584ZM201.101 157.529C201.101 188.535 175.966 213.67 144.96 213.67H72.8991C41.8934 213.67 16.7584 188.535 16.7584 157.529C16.7584 174.651 36.2662 188.532 60.3303 188.532H157.529C181.593 188.532 201.101 174.651 201.101 157.529ZM16.7584 201.101V16.7584V201.101ZM201.101 16.7584V201.101V16.7584Z" fill="#2DC38C" mask="url(#path-1-inside-1_1_735)"/>
</g>
<g filter="url(#filter1_d_1_735)">
<path d="M66.9057 104.767L88.8166 131.06C92.0231 134.908 97.867 135.102 101.321 131.475L150.698 79.6298" stroke="white" stroke-width="16.7584" stroke-linecap="round" stroke-linejoin="round"/>
</g>
<defs>
<filter id="filter0_di_1_735" x="8.37922" y="-4.18961" width="201.101" height="213.67" filterUnits="userSpaceOnUse" color-interpolation-filters="sRGB">
<feFlood flood-opacity="0" result="BackgroundImageFix"/>
<feColorMatrix in="SourceAlpha" type="matrix" values="0 0 0 0 0 0 0 0 0 0 0 0 0 0 0 0 0 0 127 0" result="hardAlpha"/>
<feMorphology radius="8.3792" operator="dilate" in="SourceAlpha" result="effect1_dropShadow_1_735"/>
<feOffset/>
<feComposite in2="hardAlpha" operator="out"/>
<feColorMatrix type="matrix" values="0 0 0 0 0.806057 0 0 0 0 0.943424 0 0 0 0 0.893056 0 0 0 0.3 0"/>
<feBlend mode="normal" in2="BackgroundImageFix" result="effect1_dropShadow_1_735"/>
<feBlend mode="normal" in="SourceGraphic" in2="effect1_dropShadow_1_735" result="shape"/>
<feColorMatrix in="SourceAlpha" type="matrix" values="0 0 0 0 0 0 0 0 0 0 0 0 0 0 0 0 0 0 127 0" result="hardAlpha"/>
<feOffset dy="-20.948"/>
<feGaussianBlur stdDeviation="12.5688"/>
<feComposite in2="hardAlpha" operator="arithmetic" k2="-1" k3="1"/>
<feColorMatrix type="matrix" values="0 0 0 0 0.386074 0 0 0 0 0.918896 0 0 0 0 0.723528 0 0 0 1 0"/>
<feBlend mode="normal" in2="shape" result="effect2_innerShadow_1_735"/>
</filter>
<filter id="filter1_d_1_735" x="25.0095" y="54.4922" width="167.584" height="138.238" filterUnits="userSpaceOnUse" color-interpolation-filters="sRGB">
<feFlood flood-opacity="0" result="BackgroundImageFix"/>
<feColorMatrix in="SourceAlpha" type="matrix" values="0 0 0 0 0 0 0 0 0 0 0 0 0 0 0 0 0 0 127 0" result="hardAlpha"/>
<feOffset dy="16.7584"/>
<feGaussianBlur stdDeviation="16.7584"/>
<feComposite in2="hardAlpha" operator="out"/>
<feColorMatrix type="matrix" values="0 0 0 0 0 0 0 0 0 0 0 0 0 0 0 0 0 0 0.34 0"/>
<feBlend mode="normal" in2="BackgroundImageFix" result="effect1_dropShadow_1_735"/>
<feBlend mode="normal" in="SourceGraphic" in2="effect1_dropShadow_1_735" result="shape"/>
</filter>
</defs>
</svg>
